# xmcd
#
# Track frame offsets:
# 150
# 14649
# 29628
# 42904
# 55903
# 71483
# 86934
# 100997
# 116262
# 131189
# 145071
# 157708
# 169582
# 183846
# 197629
# 211574
# 224678
# 238315
# 252124
# 264996
# 278927
# 291628
# 306447
# 321174
# 335995
#
# Disc length: 4655 seconds
#
# Revision: 0
# Processed by: cddbd v1.5PL3 Copyright (c) Steve Scherf et al.
# Submitted via: Audion 3.0.2 (http://www.panic.com/audion/)
#
DISCID=87122d19
DTITLE=Billy Holiday - God Bless The Child
DYEAR=1900
DGENRE=
TTITLE0=God Bless The Child
TTITLE1=Lover Man (Oh, Where Can You Be?)  
TTITLE2=That Ole Devil Called Love  
TTITLE3=Them There Eyes
TTITLE4=You're My Thrill  
TTITLE5=Don't Explain  
TTITLE6=Crazy He Calls Me  
TTITLE7=T'aint Nobody's Business If I Do  
TTITLE8=Keeps On Rainin'  
TTITLE9=The Blues Are Brewin'  
TTITLE10=a
TTITLE11=b
TTITLE12=c
TTITLE13=d
TTITLE14=e
TTITLE15=f
TTITLE16=g
TTITLE17=h
TTITLE18=i
TTITLE19=j
TTITLE20=k
TTITLE21=l
TTITLE22=m
TTITLE23=n
TTITLE24=o
EXTD=
EXTT0=
EXTT1=
EXTT2=
EXTT3=
EXTT4=
EXTT5=
EXTT6=
EXTT7=
EXTT8=
EXTT9=
EXTT10=
EXTT11=
EXTT12=
EXTT13=
EXTT14=
EXTT15=
EXTT16=
EXTT17=
EXTT18=
EXTT19=
EXTT20=
EXTT21=
EXTT22=
EXTT23=
EXTT24=
PLAYORDER=
